<?xml version="1.0" encoding="UTF-8" standalone="no"?>
<!DOCTYPE svg PUBLIC "-//W3C//DTD SVG 1.1//EN"
 "http://www.w3.org/Graphics/SVG/1.1/DTD/svg11.dtd">
<!-- Generated by graphviz version 2.40.1 (20161225.0304)
 -->
<!-- Title: dependencies Pages: 1 -->
<svg width="1080pt" height="284pt"
 viewBox="0.00 0.00 1080.00 284.00" xmlns="http://www.w3.org/2000/svg" xmlns:xlink="http://www.w3.org/1999/xlink">
<g id="graph0" class="graph" transform="scale(1 1) rotate(0) translate(4 280)">
<title>dependencies</title>
<polygon fill="#ffffff" stroke="transparent" points="-4,4 -4,-280 1076,-280 1076,4 -4,4"/>
<text text-anchor="start" x="515.0091" y="-42.4" font-family="sans-serif" font-weight="bold" font-size="14.00" fill="#000000">Legend</text>
<polygon fill="#ffffb3" stroke="transparent" points="302,-10 302,-30 322,-30 322,-10 302,-10"/>
<text text-anchor="start" x="325.629" y="-15.4" font-family="sans-serif" font-size="14.00" fill="#000000"> &#160;Declarations</text>
<polygon fill="#8dd3c7" stroke="transparent" points="415,-10 415,-30 435,-30 435,-10 415,-10"/>
<text text-anchor="start" x="438.7251" y="-15.4" font-family="sans-serif" font-size="14.00" fill="#000000"> &#160;Module</text>
<polygon fill="#80b1d3" stroke="transparent" points="501,-10 501,-30 521,-30 521,-10 501,-10"/>
<text text-anchor="start" x="524.7812" y="-15.4" font-family="sans-serif" font-size="14.00" fill="#000000"> &#160;Bootstrap</text>
<polygon fill="#fdb462" stroke="transparent" points="598,-10 598,-30 618,-30 618,-10 598,-10"/>
<text text-anchor="start" x="621.6732" y="-15.4" font-family="sans-serif" font-size="14.00" fill="#000000"> &#160;Providers</text>
<polygon fill="#fb8072" stroke="transparent" points="694,-10 694,-30 714,-30 714,-10 694,-10"/>
<text text-anchor="start" x="717.7258" y="-15.4" font-family="sans-serif" font-size="14.00" fill="#000000"> &#160;Exports</text>
<g id="clust1" class="cluster">
<title>cluster_AccountModule</title>
<polygon fill="none" stroke="#000000" stroke-dasharray="1,5" points="8,-70 8,-268 1064,-268 1064,-70 8,-70"/>
</g>
<g id="clust2" class="cluster">
<title>cluster_AccountModule_declarations</title>
<polygon fill="none" stroke="#000000" points="835,-78 835,-130 1056,-130 1056,-78 835,-78"/>
</g>
<g id="clust5" class="cluster">
<title>cluster_AccountModule_imports</title>
<polygon fill="none" stroke="#000000" points="138,-78 138,-130 827,-130 827,-78 138,-78"/>
</g>
<g id="clust7" class="cluster">
<title>cluster_AccountModule_bootstrap</title>
<polygon fill="none" stroke="#000000" points="512,-208 512,-260 660,-260 660,-208 512,-208"/>
</g>
<g id="clust8" class="cluster">
<title>cluster_AccountModule_providers</title>
<polygon fill="none" stroke="#000000" points="16,-78 16,-130 130,-130 130,-78 16,-78"/>
</g>
<!-- AccountComponent -->
<g id="node1" class="node">
<title>AccountComponent</title>
<polygon fill="#ffffb3" stroke="#000000" points="1048.259,-122 919.741,-122 919.741,-86 1048.259,-86 1048.259,-122"/>
<text text-anchor="middle" x="984" y="-99.8" font-family="Times,serif" font-size="14.00" fill="#000000">AccountComponent</text>
</g>
<!-- AccountModule -->
<g id="node3" class="node">
<title>AccountModule</title>
<polygon fill="#8dd3c7" stroke="#000000" points="639.4762,-187 636.4762,-191 615.4762,-191 612.4762,-187 532.5238,-187 532.5238,-151 639.4762,-151 639.4762,-187"/>
<text text-anchor="middle" x="586" y="-164.8" font-family="Times,serif" font-size="14.00" fill="#000000">AccountModule</text>
</g>
<!-- AccountComponent&#45;&gt;AccountModule -->
<g id="edge1" class="edge">
<title>AccountComponent&#45;&gt;AccountModule</title>
<path fill="none" stroke="#000000" d="M984,-122.2921C984,-144.2057 984,-178 984,-178 984,-178 649.6761,-178 649.6761,-178"/>
<polygon fill="#000000" stroke="#000000" points="649.6761,-174.5001 639.6761,-178 649.676,-181.5001 649.6761,-174.5001"/>
</g>
<!-- ...pages -->
<g id="node2" class="node">
<title>...pages</title>
<polygon fill="#ffffb3" stroke="#000000" points="901.375,-122 842.625,-122 842.625,-86 901.375,-86 901.375,-122"/>
<text text-anchor="middle" x="872" y="-99.8" font-family="Times,serif" font-size="14.00" fill="#000000">...pages</text>
</g>
<!-- ...pages&#45;&gt;AccountModule -->
<g id="edge2" class="edge">
<title>...pages&#45;&gt;AccountModule</title>
<path fill="none" stroke="#000000" d="M872,-122.1061C872,-141.3391 872,-169 872,-169 872,-169 649.7944,-169 649.7944,-169"/>
<polygon fill="#000000" stroke="#000000" points="649.7944,-165.5001 639.7944,-169 649.7944,-172.5001 649.7944,-165.5001"/>
</g>
<!-- AccountComponent  -->
<g id="node9" class="node">
<title>AccountComponent </title>
<polygon fill="#80b1d3" stroke="#000000" points="652.2591,-252 519.7409,-252 519.7409,-216 652.2591,-216 652.2591,-252"/>
<text text-anchor="middle" x="586" y="-229.8" font-family="Times,serif" font-size="14.00" fill="#000000">AccountComponent </text>
</g>
<!-- AccountModule&#45;&gt;AccountComponent  -->
<g id="edge8" class="edge">
<title>AccountModule&#45;&gt;AccountComponent </title>
<path fill="none" stroke="#000000" stroke-dasharray="1,5" d="M586,-187.1061C586,-187.1061 586,-205.991 586,-205.991"/>
<polygon fill="#000000" stroke="#000000" points="582.5001,-205.9909 586,-215.991 589.5001,-205.991 582.5001,-205.9909"/>
</g>
<!-- SharedModule -->
<g id="node4" class="node">
<title>SharedModule</title>
<polygon fill="#8dd3c7" stroke="#000000" points="819.4231,-122 816.4231,-126 795.4231,-126 792.4231,-122 720.5769,-122 720.5769,-86 819.4231,-86 819.4231,-122"/>
<text text-anchor="middle" x="770" y="-99.8" font-family="Times,serif" font-size="14.00" fill="#000000">SharedModule</text>
</g>
<!-- SharedModule&#45;&gt;AccountModule -->
<g id="edge3" class="edge">
<title>SharedModule&#45;&gt;AccountModule</title>
<path fill="none" stroke="#000000" d="M770,-122.027C770,-138.3976 770,-160 770,-160 770,-160 649.715,-160 649.715,-160"/>
<polygon fill="#000000" stroke="#000000" points="649.7151,-156.5001 639.715,-160 649.715,-163.5001 649.7151,-156.5001"/>
</g>
<!-- CommonModule -->
<g id="node5" class="node">
<title>CommonModule</title>
<polygon fill="#8dd3c7" stroke="#000000" points="702.6681,-122 699.6681,-126 678.6681,-126 675.6681,-122 591.3319,-122 591.3319,-86 702.6681,-86 702.6681,-122"/>
<text text-anchor="middle" x="647" y="-99.8" font-family="Times,serif" font-size="14.00" fill="#000000">CommonModule</text>
</g>
<!-- CommonModule&#45;&gt;AccountModule -->
<g id="edge4" class="edge">
<title>CommonModule&#45;&gt;AccountModule</title>
<path fill="none" stroke="#000000" d="M615.3272,-122.1061C615.3272,-122.1061 615.3272,-140.991 615.3272,-140.991"/>
<polygon fill="#000000" stroke="#000000" points="611.8272,-140.9909 615.3272,-150.991 618.8272,-140.991 611.8272,-140.9909"/>
</g>
<!-- FormsModule -->
<g id="node6" class="node">
<title>FormsModule</title>
<polygon fill="#8dd3c7" stroke="#000000" points="573.8288,-122 570.8288,-126 549.8288,-126 546.8288,-122 478.1712,-122 478.1712,-86 573.8288,-86 573.8288,-122"/>
<text text-anchor="middle" x="526" y="-99.8" font-family="Times,serif" font-size="14.00" fill="#000000">FormsModule</text>
</g>
<!-- FormsModule&#45;&gt;AccountModule -->
<g id="edge5" class="edge">
<title>FormsModule&#45;&gt;AccountModule</title>
<path fill="none" stroke="#000000" d="M553.088,-122.1061C553.088,-122.1061 553.088,-140.991 553.088,-140.991"/>
<polygon fill="#000000" stroke="#000000" points="549.5881,-140.9909 553.088,-150.991 556.5881,-140.991 549.5881,-140.9909"/>
</g>
<!-- ReactiveFormsModule -->
<g id="node7" class="node">
<title>ReactiveFormsModule</title>
<polygon fill="#8dd3c7" stroke="#000000" points="460.3047,-122 457.3047,-126 436.3047,-126 433.3047,-122 315.6953,-122 315.6953,-86 460.3047,-86 460.3047,-122"/>
<text text-anchor="middle" x="388" y="-99.8" font-family="Times,serif" font-size="14.00" fill="#000000">ReactiveFormsModule</text>
</g>
<!-- ReactiveFormsModule&#45;&gt;AccountModule -->
<g id="edge6" class="edge">
<title>ReactiveFormsModule&#45;&gt;AccountModule</title>
<path fill="none" stroke="#000000" d="M388,-122.027C388,-138.3976 388,-160 388,-160 388,-160 522.4183,-160 522.4183,-160"/>
<polygon fill="#000000" stroke="#000000" points="522.4184,-163.5001 532.4183,-160 522.4183,-156.5001 522.4184,-163.5001"/>
</g>
<!-- AccountRoutingModule -->
<g id="node8" class="node">
<title>AccountRoutingModule</title>
<polygon fill="#8dd3c7" stroke="#000000" points="298.094,-122 295.094,-126 274.094,-126 271.094,-122 145.906,-122 145.906,-86 298.094,-86 298.094,-122"/>
<text text-anchor="middle" x="222" y="-99.8" font-family="Times,serif" font-size="14.00" fill="#000000">AccountRoutingModule</text>
</g>
<!-- AccountRoutingModule&#45;&gt;AccountModule -->
<g id="edge7" class="edge">
<title>AccountRoutingModule&#45;&gt;AccountModule</title>
<path fill="none" stroke="#000000" d="M222,-122.1061C222,-141.3391 222,-169 222,-169 222,-169 522.2905,-169 522.2905,-169"/>
<polygon fill="#000000" stroke="#000000" points="522.2906,-172.5001 532.2905,-169 522.2905,-165.5001 522.2906,-172.5001"/>
</g>
<!-- ...services -->
<g id="node10" class="node">
<title>...services</title>
<ellipse fill="#fdb462" stroke="#000000" cx="73" cy="-104" rx="49.2553" ry="18"/>
<text text-anchor="middle" x="73" y="-99.8" font-family="Times,serif" font-size="14.00" fill="#000000">...services</text>
</g>
<!-- ...services&#45;&gt;AccountModule -->
<g id="edge9" class="edge">
<title>...services&#45;&gt;AccountModule</title>
<path fill="none" stroke="#000000" d="M73,-122.2921C73,-144.2057 73,-178 73,-178 73,-178 522.0696,-178 522.0696,-178"/>
<polygon fill="#000000" stroke="#000000" points="522.0696,-181.5001 532.0696,-178 522.0696,-174.5001 522.0696,-181.5001"/>
</g>
</g>
</svg>
