<?xml version="1.0" encoding="UTF-8" standalone="no"?>
<!DOCTYPE svg PUBLIC "-//W3C//DTD SVG 1.1//EN"
 "http://www.w3.org/Graphics/SVG/1.1/DTD/svg11.dtd">
<!-- Generated by graphviz version 2.40.1 (20161225.0304)
 -->
<!-- Title: dependencies Pages: 1 -->
<svg width="1707pt" height="284pt"
 viewBox="0.00 0.00 1707.00 284.00" xmlns="http://www.w3.org/2000/svg" xmlns:xlink="http://www.w3.org/1999/xlink">
<g id="graph0" class="graph" transform="scale(1 1) rotate(0) translate(4 280)">
<title>dependencies</title>
<polygon fill="#ffffff" stroke="transparent" points="-4,4 -4,-280 1703,-280 1703,4 -4,4"/>
<text text-anchor="start" x="828.5091" y="-42.4" font-family="sans-serif" font-weight="bold" font-size="14.00" fill="#000000">Legend</text>
<polygon fill="#ffffb3" stroke="transparent" points="615.5,-10 615.5,-30 635.5,-30 635.5,-10 615.5,-10"/>
<text text-anchor="start" x="639.129" y="-15.4" font-family="sans-serif" font-size="14.00" fill="#000000"> &#160;Declarations</text>
<polygon fill="#8dd3c7" stroke="transparent" points="728.5,-10 728.5,-30 748.5,-30 748.5,-10 728.5,-10"/>
<text text-anchor="start" x="752.2251" y="-15.4" font-family="sans-serif" font-size="14.00" fill="#000000"> &#160;Module</text>
<polygon fill="#80b1d3" stroke="transparent" points="814.5,-10 814.5,-30 834.5,-30 834.5,-10 814.5,-10"/>
<text text-anchor="start" x="838.2812" y="-15.4" font-family="sans-serif" font-size="14.00" fill="#000000"> &#160;Bootstrap</text>
<polygon fill="#fdb462" stroke="transparent" points="911.5,-10 911.5,-30 931.5,-30 931.5,-10 911.5,-10"/>
<text text-anchor="start" x="935.1732" y="-15.4" font-family="sans-serif" font-size="14.00" fill="#000000"> &#160;Providers</text>
<polygon fill="#fb8072" stroke="transparent" points="1007.5,-10 1007.5,-30 1027.5,-30 1027.5,-10 1007.5,-10"/>
<text text-anchor="start" x="1031.2258" y="-15.4" font-family="sans-serif" font-size="14.00" fill="#000000"> &#160;Exports</text>
<g id="clust1" class="cluster">
<title>cluster_WebModule</title>
<polygon fill="none" stroke="#000000" stroke-dasharray="1,5" points="8,-70 8,-268 1691,-268 1691,-70 8,-70"/>
</g>
<g id="clust2" class="cluster">
<title>cluster_WebModule_declarations</title>
<polygon fill="none" stroke="#000000" points="1347,-78 1347,-130 1683,-130 1683,-78 1347,-78"/>
</g>
<g id="clust6" class="cluster">
<title>cluster_WebModule_imports</title>
<polygon fill="none" stroke="#000000" points="138,-78 138,-130 1339,-130 1339,-78 138,-78"/>
</g>
<g id="clust8" class="cluster">
<title>cluster_WebModule_bootstrap</title>
<polygon fill="none" stroke="#000000" points="847,-208 847,-260 975,-260 975,-208 847,-208"/>
</g>
<g id="clust9" class="cluster">
<title>cluster_WebModule_providers</title>
<polygon fill="none" stroke="#000000" points="16,-78 16,-130 130,-130 130,-78 16,-78"/>
</g>
<!-- WebComponent -->
<g id="node1" class="node">
<title>WebComponent</title>
<polygon fill="#ffffb3" stroke="#000000" points="1674.7619,-122 1567.2381,-122 1567.2381,-86 1674.7619,-86 1674.7619,-122"/>
<text text-anchor="middle" x="1621" y="-99.8" font-family="Times,serif" font-size="14.00" fill="#000000">WebComponent</text>
</g>
<!-- WebModule -->
<g id="node4" class="node">
<title>WebModule</title>
<polygon fill="#8dd3c7" stroke="#000000" points="953.979,-187 950.979,-191 929.979,-191 926.979,-187 868.021,-187 868.021,-151 953.979,-151 953.979,-187"/>
<text text-anchor="middle" x="911" y="-164.8" font-family="Times,serif" font-size="14.00" fill="#000000">WebModule</text>
</g>
<!-- WebComponent&#45;&gt;WebModule -->
<g id="edge1" class="edge">
<title>WebComponent&#45;&gt;WebModule</title>
<path fill="none" stroke="#000000" d="M1621,-122.0908C1621,-145.1328 1621,-182 1621,-182 1621,-182 964.0795,-182 964.0795,-182"/>
<polygon fill="#000000" stroke="#000000" points="964.0795,-178.5001 954.0795,-182 964.0794,-185.5001 964.0795,-178.5001"/>
</g>
<!-- ...pages -->
<g id="node2" class="node">
<title>...pages</title>
<polygon fill="#ffffb3" stroke="#000000" points="1549.375,-122 1490.625,-122 1490.625,-86 1549.375,-86 1549.375,-122"/>
<text text-anchor="middle" x="1520" y="-99.8" font-family="Times,serif" font-size="14.00" fill="#000000">...pages</text>
</g>
<!-- ...pages&#45;&gt;WebModule -->
<g id="edge2" class="edge">
<title>...pages&#45;&gt;WebModule</title>
<path fill="none" stroke="#000000" d="M1520,-122.0449C1520,-143.6623 1520,-177 1520,-177 1520,-177 964.3096,-177 964.3096,-177"/>
<polygon fill="#000000" stroke="#000000" points="964.3096,-173.5001 954.3096,-177 964.3095,-180.5001 964.3096,-173.5001"/>
</g>
<!-- PlayerComponent -->
<g id="node3" class="node">
<title>PlayerComponent</title>
<polygon fill="#ffffb3" stroke="#000000" points="1472.5954,-122 1355.4046,-122 1355.4046,-86 1472.5954,-86 1472.5954,-122"/>
<text text-anchor="middle" x="1414" y="-99.8" font-family="Times,serif" font-size="14.00" fill="#000000">PlayerComponent</text>
</g>
<!-- PlayerComponent&#45;&gt;WebModule -->
<g id="edge3" class="edge">
<title>PlayerComponent&#45;&gt;WebModule</title>
<path fill="none" stroke="#000000" d="M1414,-122.2228C1414,-142.3652 1414,-172 1414,-172 1414,-172 964.3208,-172 964.3208,-172"/>
<polygon fill="#000000" stroke="#000000" points="964.3209,-168.5001 954.3208,-172 964.3208,-175.5001 964.3209,-168.5001"/>
</g>
<!-- WebComponent  -->
<g id="node14" class="node">
<title>WebComponent </title>
<polygon fill="#80b1d3" stroke="#000000" points="966.7619,-252 855.2381,-252 855.2381,-216 966.7619,-216 966.7619,-252"/>
<text text-anchor="middle" x="911" y="-229.8" font-family="Times,serif" font-size="14.00" fill="#000000">WebComponent </text>
</g>
<!-- WebModule&#45;&gt;WebComponent  -->
<g id="edge13" class="edge">
<title>WebModule&#45;&gt;WebComponent </title>
<path fill="none" stroke="#000000" stroke-dasharray="1,5" d="M911,-187.1061C911,-187.1061 911,-205.991 911,-205.991"/>
<polygon fill="#000000" stroke="#000000" points="907.5001,-205.9909 911,-215.991 914.5001,-205.991 907.5001,-205.9909"/>
</g>
<!-- SharedModule -->
<g id="node5" class="node">
<title>SharedModule</title>
<polygon fill="#8dd3c7" stroke="#000000" points="1331.4231,-122 1328.4231,-126 1307.4231,-126 1304.4231,-122 1232.5769,-122 1232.5769,-86 1331.4231,-86 1331.4231,-122"/>
<text text-anchor="middle" x="1282" y="-99.8" font-family="Times,serif" font-size="14.00" fill="#000000">SharedModule</text>
</g>
<!-- SharedModule&#45;&gt;WebModule -->
<g id="edge4" class="edge">
<title>SharedModule&#45;&gt;WebModule</title>
<path fill="none" stroke="#000000" d="M1282,-122.2222C1282,-140.8285 1282,-167 1282,-167 1282,-167 964.2845,-167 964.2845,-167"/>
<polygon fill="#000000" stroke="#000000" points="964.2845,-163.5001 954.2845,-167 964.2845,-170.5001 964.2845,-163.5001"/>
</g>
<!-- CommonModule -->
<g id="node6" class="node">
<title>CommonModule</title>
<polygon fill="#8dd3c7" stroke="#000000" points="1214.6681,-122 1211.6681,-126 1190.6681,-126 1187.6681,-122 1103.3319,-122 1103.3319,-86 1214.6681,-86 1214.6681,-122"/>
<text text-anchor="middle" x="1159" y="-99.8" font-family="Times,serif" font-size="14.00" fill="#000000">CommonModule</text>
</g>
<!-- CommonModule&#45;&gt;WebModule -->
<g id="edge5" class="edge">
<title>CommonModule&#45;&gt;WebModule</title>
<path fill="none" stroke="#000000" d="M1159,-122.0336C1159,-139.0597 1159,-162 1159,-162 1159,-162 964.1983,-162 964.1983,-162"/>
<polygon fill="#000000" stroke="#000000" points="964.1983,-158.5001 954.1983,-162 964.1983,-165.5001 964.1983,-158.5001"/>
</g>
<!-- FormsModule -->
<g id="node7" class="node">
<title>FormsModule</title>
<polygon fill="#8dd3c7" stroke="#000000" points="1085.8288,-122 1082.8288,-126 1061.8288,-126 1058.8288,-122 990.1712,-122 990.1712,-86 1085.8288,-86 1085.8288,-122"/>
<text text-anchor="middle" x="1038" y="-99.8" font-family="Times,serif" font-size="14.00" fill="#000000">FormsModule</text>
</g>
<!-- FormsModule&#45;&gt;WebModule -->
<g id="edge6" class="edge">
<title>FormsModule&#45;&gt;WebModule</title>
<path fill="none" stroke="#000000" d="M1038,-122.2396C1038,-137.5706 1038,-157 1038,-157 1038,-157 963.9964,-157 963.9964,-157"/>
<polygon fill="#000000" stroke="#000000" points="963.9964,-153.5001 953.9964,-157 963.9964,-160.5001 963.9964,-153.5001"/>
</g>
<!-- FileUploadModule -->
<g id="node8" class="node">
<title>FileUploadModule</title>
<polygon fill="#8dd3c7" stroke="#000000" points="972.0409,-122 969.0409,-126 948.0409,-126 945.0409,-122 849.9591,-122 849.9591,-86 972.0409,-86 972.0409,-122"/>
<text text-anchor="middle" x="911" y="-99.8" font-family="Times,serif" font-size="14.00" fill="#000000">FileUploadModule</text>
</g>
<!-- FileUploadModule&#45;&gt;WebModule -->
<g id="edge7" class="edge">
<title>FileUploadModule&#45;&gt;WebModule</title>
<path fill="none" stroke="#000000" d="M911,-122.1061C911,-122.1061 911,-140.991 911,-140.991"/>
<polygon fill="#000000" stroke="#000000" points="907.5001,-140.9909 911,-150.991 914.5001,-140.991 907.5001,-140.9909"/>
</g>
<!-- HttpModule -->
<g id="node9" class="node">
<title>HttpModule</title>
<polygon fill="#8dd3c7" stroke="#000000" points="832.4387,-122 829.4387,-126 808.4387,-126 805.4387,-122 747.5613,-122 747.5613,-86 832.4387,-86 832.4387,-122"/>
<text text-anchor="middle" x="790" y="-99.8" font-family="Times,serif" font-size="14.00" fill="#000000">HttpModule</text>
</g>
<!-- HttpModule&#45;&gt;WebModule -->
<g id="edge8" class="edge">
<title>HttpModule&#45;&gt;WebModule</title>
<path fill="none" stroke="#000000" d="M790,-122.2396C790,-137.5706 790,-157 790,-157 790,-157 857.9992,-157 857.9992,-157"/>
<polygon fill="#000000" stroke="#000000" points="857.9993,-160.5001 867.9992,-157 857.9992,-153.5001 857.9993,-160.5001"/>
</g>
<!-- WebRoutingModule -->
<g id="node10" class="node">
<title>WebRoutingModule</title>
<polygon fill="#8dd3c7" stroke="#000000" points="729.5968,-122 726.5968,-126 705.5968,-126 702.5968,-122 598.4032,-122 598.4032,-86 729.5968,-86 729.5968,-122"/>
<text text-anchor="middle" x="664" y="-99.8" font-family="Times,serif" font-size="14.00" fill="#000000">WebRoutingModule</text>
</g>
<!-- WebRoutingModule&#45;&gt;WebModule -->
<g id="edge9" class="edge">
<title>WebRoutingModule&#45;&gt;WebModule</title>
<path fill="none" stroke="#000000" d="M664,-122.0336C664,-139.0597 664,-162 664,-162 664,-162 857.9759,-162 857.9759,-162"/>
<polygon fill="#000000" stroke="#000000" points="857.9759,-165.5001 867.9759,-162 857.9758,-158.5001 857.9759,-165.5001"/>
</g>
<!-- Ng2BootstrapModule.forRoot() -->
<g id="node11" class="node">
<title>Ng2BootstrapModule.forRoot()</title>
<polygon fill="#8dd3c7" stroke="#000000" points="580.4642,-122 577.4642,-126 556.4642,-126 553.4642,-122 385.5358,-122 385.5358,-86 580.4642,-86 580.4642,-122"/>
<text text-anchor="middle" x="483" y="-99.8" font-family="Times,serif" font-size="14.00" fill="#000000">Ng2BootstrapModule.forRoot()</text>
</g>
<!-- Ng2BootstrapModule.forRoot()&#45;&gt;WebModule -->
<g id="edge10" class="edge">
<title>Ng2BootstrapModule.forRoot()&#45;&gt;WebModule</title>
<path fill="none" stroke="#000000" d="M483,-122.2222C483,-140.8285 483,-167 483,-167 483,-167 858.0021,-167 858.0021,-167"/>
<polygon fill="#000000" stroke="#000000" points="858.0021,-170.5001 868.0021,-167 858.0021,-163.5001 858.0021,-170.5001"/>
</g>
<!-- SelectModule -->
<g id="node12" class="node">
<title>SelectModule</title>
<polygon fill="#8dd3c7" stroke="#000000" points="367.7577,-122 364.7577,-126 343.7577,-126 340.7577,-122 274.2423,-122 274.2423,-86 367.7577,-86 367.7577,-122"/>
<text text-anchor="middle" x="321" y="-99.8" font-family="Times,serif" font-size="14.00" fill="#000000">SelectModule</text>
</g>
<!-- SelectModule&#45;&gt;WebModule -->
<g id="edge11" class="edge">
<title>SelectModule&#45;&gt;WebModule</title>
<path fill="none" stroke="#000000" d="M321,-122.2228C321,-142.3652 321,-172 321,-172 321,-172 857.6159,-172 857.6159,-172"/>
<polygon fill="#000000" stroke="#000000" points="857.6159,-175.5001 867.6159,-172 857.6159,-168.5001 857.6159,-175.5001"/>
</g>
<!-- TagInputModule -->
<g id="node13" class="node">
<title>TagInputModule</title>
<polygon fill="#8dd3c7" stroke="#000000" points="256.3683,-122 253.3683,-126 232.3683,-126 229.3683,-122 145.6317,-122 145.6317,-86 256.3683,-86 256.3683,-122"/>
<text text-anchor="middle" x="201" y="-99.8" font-family="Times,serif" font-size="14.00" fill="#000000">TagInputModule</text>
</g>
<!-- TagInputModule&#45;&gt;WebModule -->
<g id="edge12" class="edge">
<title>TagInputModule&#45;&gt;WebModule</title>
<path fill="none" stroke="#000000" d="M201,-122.0449C201,-143.6623 201,-177 201,-177 201,-177 857.9205,-177 857.9205,-177"/>
<polygon fill="#000000" stroke="#000000" points="857.9206,-180.5001 867.9205,-177 857.9205,-173.5001 857.9206,-180.5001"/>
</g>
<!-- ...services -->
<g id="node15" class="node">
<title>...services</title>
<ellipse fill="#fdb462" stroke="#000000" cx="73" cy="-104" rx="49.2553" ry="18"/>
<text text-anchor="middle" x="73" y="-99.8" font-family="Times,serif" font-size="14.00" fill="#000000">...services</text>
</g>
<!-- ...services&#45;&gt;WebModule -->
<g id="edge14" class="edge">
<title>...services&#45;&gt;WebModule</title>
<path fill="none" stroke="#000000" d="M73,-122.0908C73,-145.1328 73,-182 73,-182 73,-182 858.0012,-182 858.0012,-182"/>
<polygon fill="#000000" stroke="#000000" points="858.0012,-185.5001 868.0012,-182 858.0011,-178.5001 858.0012,-185.5001"/>
</g>
</g>
</svg>
