<?xml version="1.0" encoding="UTF-8" standalone="no"?>
<!DOCTYPE svg PUBLIC "-//W3C//DTD SVG 1.1//EN"
 "http://www.w3.org/Graphics/SVG/1.1/DTD/svg11.dtd">
<!-- Generated by graphviz version 2.40.1 (20161225.0304)
 -->
<!-- Title: dependencies Pages: 1 -->
<svg width="504pt" height="284pt"
 viewBox="0.00 0.00 504.00 284.00" xmlns="http://www.w3.org/2000/svg" xmlns:xlink="http://www.w3.org/1999/xlink">
<g id="graph0" class="graph" transform="scale(1 1) rotate(0) translate(4 280)">
<title>dependencies</title>
<polygon fill="#ffffff" stroke="transparent" points="-4,4 -4,-280 500,-280 500,4 -4,4"/>
<text text-anchor="start" x="227.0091" y="-42.4" font-family="sans-serif" font-weight="bold" font-size="14.00" fill="#000000">Legend</text>
<polygon fill="#ffffb3" stroke="transparent" points="14,-10 14,-30 34,-30 34,-10 14,-10"/>
<text text-anchor="start" x="37.629" y="-15.4" font-family="sans-serif" font-size="14.00" fill="#000000"> &#160;Declarations</text>
<polygon fill="#8dd3c7" stroke="transparent" points="127,-10 127,-30 147,-30 147,-10 127,-10"/>
<text text-anchor="start" x="150.7251" y="-15.4" font-family="sans-serif" font-size="14.00" fill="#000000"> &#160;Module</text>
<polygon fill="#80b1d3" stroke="transparent" points="213,-10 213,-30 233,-30 233,-10 213,-10"/>
<text text-anchor="start" x="236.7812" y="-15.4" font-family="sans-serif" font-size="14.00" fill="#000000"> &#160;Bootstrap</text>
<polygon fill="#fdb462" stroke="transparent" points="310,-10 310,-30 330,-30 330,-10 310,-10"/>
<text text-anchor="start" x="333.6732" y="-15.4" font-family="sans-serif" font-size="14.00" fill="#000000"> &#160;Providers</text>
<polygon fill="#fb8072" stroke="transparent" points="406,-10 406,-30 426,-30 426,-10 406,-10"/>
<text text-anchor="start" x="429.7258" y="-15.4" font-family="sans-serif" font-size="14.00" fill="#000000"> &#160;Exports</text>
<g id="clust1" class="cluster">
<title>cluster_SharedModule</title>
<polygon fill="none" stroke="#000000" stroke-dasharray="1,5" points="8,-70 8,-268 488,-268 488,-70 8,-70"/>
</g>
<g id="clust2" class="cluster">
<title>cluster_SharedModule_declarations</title>
<polygon fill="none" stroke="#000000" points="370,-78 370,-130 480,-130 480,-78 370,-78"/>
</g>
<g id="clust4" class="cluster">
<title>cluster_SharedModule_imports</title>
<polygon fill="none" stroke="#000000" points="16,-78 16,-130 362,-130 362,-78 16,-78"/>
</g>
<g id="clust5" class="cluster">
<title>cluster_SharedModule_exports</title>
<polygon fill="none" stroke="#000000" points="193,-208 193,-260 307,-260 307,-208 193,-208"/>
</g>
<!-- ...components -->
<g id="node1" class="node">
<title>...components</title>
<polygon fill="#ffffb3" stroke="#000000" points="472.1551,-122 377.8449,-122 377.8449,-86 472.1551,-86 472.1551,-122"/>
<text text-anchor="middle" x="425" y="-99.8" font-family="Times,serif" font-size="14.00" fill="#000000">...components</text>
</g>
<!-- SharedModule -->
<g id="node2" class="node">
<title>SharedModule</title>
<polygon fill="#8dd3c7" stroke="#000000" points="299.4231,-187 296.4231,-191 275.4231,-191 272.4231,-187 200.5769,-187 200.5769,-151 299.4231,-151 299.4231,-187"/>
<text text-anchor="middle" x="250" y="-164.8" font-family="Times,serif" font-size="14.00" fill="#000000">SharedModule</text>
</g>
<!-- ...components&#45;&gt;SharedModule -->
<g id="edge1" class="edge">
<title>...components&#45;&gt;SharedModule</title>
<path fill="none" stroke="#000000" d="M425,-122.1061C425,-141.3391 425,-169 425,-169 425,-169 309.213,-169 309.213,-169"/>
<polygon fill="#000000" stroke="#000000" points="309.213,-165.5001 299.213,-169 309.2129,-172.5001 309.213,-165.5001"/>
</g>
<!-- ...components  -->
<g id="node6" class="node">
<title>...components </title>
<polygon fill="#fb8072" stroke="#000000" points="298.6556,-252 201.3444,-252 201.3444,-216 298.6556,-216 298.6556,-252"/>
<text text-anchor="middle" x="250" y="-229.8" font-family="Times,serif" font-size="14.00" fill="#000000">...components </text>
</g>
<!-- SharedModule&#45;&gt;...components  -->
<g id="edge5" class="edge">
<title>SharedModule&#45;&gt;...components </title>
<path fill="none" stroke="#000000" stroke-dasharray="5,2" d="M250,-187.1061C250,-187.1061 250,-205.991 250,-205.991"/>
<polygon fill="#000000" stroke="#000000" points="246.5001,-205.9909 250,-215.991 253.5001,-205.991 246.5001,-205.9909"/>
</g>
<!-- RouterModule -->
<g id="node3" class="node">
<title>RouterModule</title>
<polygon fill="#8dd3c7" stroke="#000000" points="353.6528,-122 350.6528,-126 329.6528,-126 326.6528,-122 256.3472,-122 256.3472,-86 353.6528,-86 353.6528,-122"/>
<text text-anchor="middle" x="305" y="-99.8" font-family="Times,serif" font-size="14.00" fill="#000000">RouterModule</text>
</g>
<!-- RouterModule&#45;&gt;SharedModule -->
<g id="edge2" class="edge">
<title>RouterModule&#45;&gt;SharedModule</title>
<path fill="none" stroke="#000000" d="M277.6925,-122.1061C277.6925,-122.1061 277.6925,-140.991 277.6925,-140.991"/>
<polygon fill="#000000" stroke="#000000" points="274.1926,-140.9909 277.6925,-150.991 281.1926,-140.991 274.1926,-140.9909"/>
</g>
<!-- HttpModule -->
<g id="node4" class="node">
<title>HttpModule</title>
<polygon fill="#8dd3c7" stroke="#000000" points="238.4387,-122 235.4387,-126 214.4387,-126 211.4387,-122 153.5613,-122 153.5613,-86 238.4387,-86 238.4387,-122"/>
<text text-anchor="middle" x="196" y="-99.8" font-family="Times,serif" font-size="14.00" fill="#000000">HttpModule</text>
</g>
<!-- HttpModule&#45;&gt;SharedModule -->
<g id="edge3" class="edge">
<title>HttpModule&#45;&gt;SharedModule</title>
<path fill="none" stroke="#000000" d="M219.5039,-122.1061C219.5039,-122.1061 219.5039,-140.991 219.5039,-140.991"/>
<polygon fill="#000000" stroke="#000000" points="216.0039,-140.9909 219.5039,-150.991 223.0039,-140.991 216.0039,-140.9909"/>
</g>
<!-- CommonModule -->
<g id="node5" class="node">
<title>CommonModule</title>
<polygon fill="#8dd3c7" stroke="#000000" points="135.6681,-122 132.6681,-126 111.6681,-126 108.6681,-122 24.3319,-122 24.3319,-86 135.6681,-86 135.6681,-122"/>
<text text-anchor="middle" x="80" y="-99.8" font-family="Times,serif" font-size="14.00" fill="#000000">CommonModule</text>
</g>
<!-- CommonModule&#45;&gt;SharedModule -->
<g id="edge4" class="edge">
<title>CommonModule&#45;&gt;SharedModule</title>
<path fill="none" stroke="#000000" d="M80,-122.1061C80,-141.3391 80,-169 80,-169 80,-169 190.372,-169 190.372,-169"/>
<polygon fill="#000000" stroke="#000000" points="190.372,-172.5001 200.372,-169 190.3719,-165.5001 190.372,-172.5001"/>
</g>
</g>
</svg>
