<?xml version="1.0" encoding="UTF-8" standalone="no"?>
<!DOCTYPE svg PUBLIC "-//W3C//DTD SVG 1.1//EN"
 "http://www.w3.org/Graphics/SVG/1.1/DTD/svg11.dtd">
<!-- Generated by graphviz version 2.40.1 (20161225.0304)
 -->
<!-- Title: dependencies Pages: 1 -->
<svg width="3693pt" height="363pt"
 viewBox="0.00 0.00 3693.00 363.00" xmlns="http://www.w3.org/2000/svg" xmlns:xlink="http://www.w3.org/1999/xlink">
<g id="graph0" class="graph" transform="scale(1 1) rotate(0) translate(4 359)">
<title>dependencies</title>
<polygon fill="#ffffff" stroke="transparent" points="-4,4 -4,-359 3689,-359 3689,4 -4,4"/>
<text text-anchor="start" x="1821.5091" y="-42.4" font-family="sans-serif" font-weight="bold" font-size="14.00" fill="#000000">Legend</text>
<polygon fill="#ffffb3" stroke="transparent" points="1608.5,-10 1608.5,-30 1628.5,-30 1628.5,-10 1608.5,-10"/>
<text text-anchor="start" x="1632.129" y="-15.4" font-family="sans-serif" font-size="14.00" fill="#000000"> &#160;Declarations</text>
<polygon fill="#8dd3c7" stroke="transparent" points="1721.5,-10 1721.5,-30 1741.5,-30 1741.5,-10 1721.5,-10"/>
<text text-anchor="start" x="1745.2251" y="-15.4" font-family="sans-serif" font-size="14.00" fill="#000000"> &#160;Module</text>
<polygon fill="#80b1d3" stroke="transparent" points="1807.5,-10 1807.5,-30 1827.5,-30 1827.5,-10 1807.5,-10"/>
<text text-anchor="start" x="1831.2812" y="-15.4" font-family="sans-serif" font-size="14.00" fill="#000000"> &#160;Bootstrap</text>
<polygon fill="#fdb462" stroke="transparent" points="1904.5,-10 1904.5,-30 1924.5,-30 1924.5,-10 1904.5,-10"/>
<text text-anchor="start" x="1928.1732" y="-15.4" font-family="sans-serif" font-size="14.00" fill="#000000"> &#160;Providers</text>
<polygon fill="#fb8072" stroke="transparent" points="2000.5,-10 2000.5,-30 2020.5,-30 2020.5,-10 2000.5,-10"/>
<text text-anchor="start" x="2024.2258" y="-15.4" font-family="sans-serif" font-size="14.00" fill="#000000"> &#160;Exports</text>
<g id="clust1" class="cluster">
<title>cluster_AccountModule</title>
<polygon fill="none" stroke="#000000" stroke-dasharray="1,5" points="386,-70 386,-347 1327,-347 1327,-70 386,-70"/>
</g>
<g id="clust2" class="cluster">
<title>cluster_AccountModule_declarations</title>
<polygon fill="none" stroke="#000000" points="976,-154 976,-206 1197,-206 1197,-154 976,-154"/>
</g>
<g id="clust5" class="cluster">
<title>cluster_AccountModule_imports</title>
<polygon fill="none" stroke="#000000" points="394,-78 394,-206 968,-206 968,-78 394,-78"/>
</g>
<g id="clust7" class="cluster">
<title>cluster_AccountModule_bootstrap</title>
<polygon fill="none" stroke="#000000" points="768,-287 768,-339 916,-339 916,-287 768,-287"/>
</g>
<g id="clust8" class="cluster">
<title>cluster_AccountModule_providers</title>
<polygon fill="none" stroke="#000000" points="1205,-154 1205,-206 1319,-206 1319,-154 1205,-154"/>
</g>
<g id="clust9" class="cluster">
<title>cluster_AdminModule</title>
<polygon fill="none" stroke="#000000" stroke-dasharray="1,5" points="1427,-146 1427,-347 2116,-347 2116,-146 1427,-146"/>
</g>
<g id="clust10" class="cluster">
<title>cluster_AdminModule_declarations</title>
<polygon fill="none" stroke="#000000" points="1435,-154 1435,-206 1571,-206 1571,-154 1435,-154"/>
</g>
<g id="clust13" class="cluster">
<title>cluster_AdminModule_imports</title>
<polygon fill="none" stroke="#000000" points="1579,-154 1579,-206 2108,-206 2108,-154 1579,-154"/>
</g>
<g id="clust15" class="cluster">
<title>cluster_AdminModule_bootstrap</title>
<polygon fill="none" stroke="#000000" points="1435,-287 1435,-339 1575,-339 1575,-287 1435,-287"/>
</g>
<g id="clust17" class="cluster">
<title>cluster_AppModule</title>
<polygon fill="none" stroke="#000000" stroke-dasharray="1,5" points="3089,-70 3089,-279 3677,-279 3677,-70 3089,-70"/>
</g>
<g id="clust18" class="cluster">
<title>cluster_AppModule_declarations</title>
<polygon fill="none" stroke="#000000" points="3547,-78 3547,-130 3669,-130 3669,-78 3547,-78"/>
</g>
<g id="clust20" class="cluster">
<title>cluster_AppModule_imports</title>
<polygon fill="none" stroke="#000000" points="3097,-78 3097,-130 3539,-130 3539,-78 3097,-78"/>
</g>
<g id="clust22" class="cluster">
<title>cluster_AppModule_bootstrap</title>
<polygon fill="none" stroke="#000000" points="3341,-219 3341,-271 3465,-271 3465,-219 3341,-219"/>
</g>
<g id="clust24" class="cluster">
<title>cluster_SharedModule</title>
<polygon fill="none" stroke="#000000" stroke-dasharray="1,5" points="8,-70 8,-138 378,-138 378,-70 8,-70"/>
</g>
<g id="clust25" class="cluster">
<title>cluster_SharedModule_declarations</title>
<polygon fill="none" stroke="#000000" points="260,-78 260,-130 370,-130 370,-78 260,-78"/>
</g>
<g id="clust27" class="cluster">
<title>cluster_SharedModule_imports</title>
<polygon fill="none" stroke="#000000" points="138,-78 138,-130 252,-130 252,-78 138,-78"/>
</g>
<g id="clust28" class="cluster">
<title>cluster_SharedModule_exports</title>
<polygon fill="none" stroke="#000000" points="16,-78 16,-130 130,-130 130,-78 16,-78"/>
</g>
<g id="clust31" class="cluster">
<title>cluster_WebModule</title>
<polygon fill="none" stroke="#000000" stroke-dasharray="1,5" points="2146,-146 2146,-347 3059,-347 3059,-146 2146,-146"/>
</g>
<g id="clust32" class="cluster">
<title>cluster_WebModule_declarations</title>
<polygon fill="none" stroke="#000000" points="2792,-154 2792,-206 3051,-206 3051,-154 2792,-154"/>
</g>
<g id="clust36" class="cluster">
<title>cluster_WebModule_imports</title>
<polygon fill="none" stroke="#000000" points="2154,-154 2154,-206 2784,-206 2784,-154 2154,-154"/>
</g>
<g id="clust38" class="cluster">
<title>cluster_WebModule_bootstrap</title>
<polygon fill="none" stroke="#000000" points="2159,-287 2159,-339 2287,-339 2287,-287 2159,-287"/>
</g>
<!-- AccountComponent -->
<g id="node1" class="node">
<title>AccountComponent</title>
<polygon fill="#ffffb3" stroke="#000000" points="1112.259,-198 983.741,-198 983.741,-162 1112.259,-162 1112.259,-198"/>
<text text-anchor="middle" x="1048" y="-175.8" font-family="Times,serif" font-size="14.00" fill="#000000">AccountComponent</text>
</g>
<!-- AccountModule -->
<g id="node3" class="node">
<title>AccountModule</title>
<polygon fill="#8dd3c7" stroke="#000000" points="895.4762,-263 892.4762,-267 871.4762,-267 868.4762,-263 788.5238,-263 788.5238,-227 895.4762,-227 895.4762,-263"/>
<text text-anchor="middle" x="842" y="-240.8" font-family="Times,serif" font-size="14.00" fill="#000000">AccountModule</text>
</g>
<!-- AccountComponent&#45;&gt;AccountModule -->
<g id="edge1" class="edge">
<title>AccountComponent&#45;&gt;AccountModule</title>
<path fill="none" stroke="#000000" d="M983.6192,-189C938.087,-189 885.104,-189 885.104,-189 885.104,-189 885.104,-216.973 885.104,-216.973"/>
<polygon fill="#000000" stroke="#000000" points="881.6041,-216.973 885.104,-226.973 888.6041,-216.973 881.6041,-216.973"/>
</g>
<!-- ...pages -->
<g id="node2" class="node">
<title>...pages</title>
<polygon fill="#ffffb3" stroke="#000000" points="1189.375,-198 1130.625,-198 1130.625,-162 1189.375,-162 1189.375,-198"/>
<text text-anchor="middle" x="1160" y="-175.8" font-family="Times,serif" font-size="14.00" fill="#000000">...pages</text>
</g>
<!-- ...pages&#45;&gt;AccountModule -->
<g id="edge2" class="edge">
<title>...pages&#45;&gt;AccountModule</title>
<path fill="none" stroke="#000000" d="M1160,-198.2396C1160,-213.5706 1160,-233 1160,-233 1160,-233 905.5848,-233 905.5848,-233"/>
<polygon fill="#000000" stroke="#000000" points="905.5848,-229.5001 895.5848,-233 905.5847,-236.5001 905.5848,-229.5001"/>
</g>
<!-- AdminModule -->
<g id="node12" class="node">
<title>AdminModule</title>
<polygon fill="#8dd3c7" stroke="#000000" points="1542.4386,-263 1539.4386,-267 1518.4386,-267 1515.4386,-263 1443.5614,-263 1443.5614,-227 1542.4386,-227 1542.4386,-263"/>
<text text-anchor="middle" x="1493" y="-240.8" font-family="Times,serif" font-size="14.00" fill="#000000">AdminModule</text>
</g>
<!-- ...pages&#45;&gt;AdminModule -->
<g id="edge11" class="edge">
<title>...pages&#45;&gt;AdminModule</title>
<path fill="none" stroke="#000000" d="M1174.5935,-198.2228C1174.5935,-218.3652 1174.5935,-248 1174.5935,-248 1174.5935,-248 1433.5983,-248 1433.5983,-248"/>
<polygon fill="#000000" stroke="#000000" points="1433.5984,-251.5001 1443.5983,-248 1433.5983,-244.5001 1433.5984,-251.5001"/>
</g>
<!-- WebModule -->
<g id="node29" class="node">
<title>WebModule</title>
<polygon fill="#8dd3c7" stroke="#000000" points="2265.979,-263 2262.979,-267 2241.979,-267 2238.979,-263 2180.021,-263 2180.021,-227 2265.979,-227 2265.979,-263"/>
<text text-anchor="middle" x="2223" y="-240.8" font-family="Times,serif" font-size="14.00" fill="#000000">WebModule</text>
</g>
<!-- ...pages&#45;&gt;WebModule -->
<g id="edge33" class="edge">
<title>...pages&#45;&gt;WebModule</title>
<path fill="none" stroke="#000000" d="M1145.4066,-198.2015C1145.4066,-204.028 1145.4066,-209 1145.4066,-209 1145.4066,-209 2223,-209 2223,-209 2223,-209 2223,-216.5782 2223,-216.5782"/>
<polygon fill="#000000" stroke="#000000" points="2219.5001,-216.5781 2223,-226.5782 2226.5001,-216.5782 2219.5001,-216.5781"/>
</g>
<!-- AccountComponent  -->
<g id="node9" class="node">
<title>AccountComponent </title>
<polygon fill="#80b1d3" stroke="#000000" points="908.2591,-331 775.7409,-331 775.7409,-295 908.2591,-295 908.2591,-331"/>
<text text-anchor="middle" x="842" y="-308.8" font-family="Times,serif" font-size="14.00" fill="#000000">AccountComponent </text>
</g>
<!-- AccountModule&#45;&gt;AccountComponent  -->
<g id="edge8" class="edge">
<title>AccountModule&#45;&gt;AccountComponent </title>
<path fill="none" stroke="#000000" stroke-dasharray="1,5" d="M842,-263.2228C842,-263.2228 842,-284.7269 842,-284.7269"/>
<polygon fill="#000000" stroke="#000000" points="838.5001,-284.7269 842,-294.7269 845.5001,-284.727 838.5001,-284.7269"/>
</g>
<!-- SharedModule -->
<g id="node4" class="node">
<title>SharedModule</title>
<polygon fill="#8dd3c7" stroke="#000000" points="682.4231,-198 679.4231,-202 658.4231,-202 655.4231,-198 583.5769,-198 583.5769,-162 682.4231,-162 682.4231,-198"/>
<text text-anchor="middle" x="633" y="-175.8" font-family="Times,serif" font-size="14.00" fill="#000000">SharedModule</text>
</g>
<!-- SharedModule&#45;&gt;AccountModule -->
<g id="edge3" class="edge">
<title>SharedModule&#45;&gt;AccountModule</title>
<path fill="none" stroke="#000000" d="M682.6053,-180C732.7601,-180 802.922,-180 802.922,-180 802.922,-180 802.922,-216.8939 802.922,-216.8939"/>
<polygon fill="#000000" stroke="#000000" points="799.4221,-216.8938 802.922,-226.8939 806.4221,-216.8939 799.4221,-216.8938"/>
</g>
<!-- SharedModule&#45;&gt;AdminModule -->
<g id="edge13" class="edge">
<title>SharedModule&#45;&gt;AdminModule</title>
<path fill="none" stroke="#000000" d="M682.2555,-171C765.5609,-171 925.3076,-171 925.3076,-171 925.3076,-171 925.3076,-258 925.3076,-258 925.3076,-258 1433.6141,-258 1433.6141,-258"/>
<polygon fill="#000000" stroke="#000000" points="1433.6142,-261.5001 1443.6141,-258 1433.6141,-254.5001 1433.6142,-261.5001"/>
</g>
<!-- ...components  -->
<g id="node26" class="node">
<title>...components </title>
<polygon fill="#fb8072" stroke="#000000" points="121.6556,-122 24.3444,-122 24.3444,-86 121.6556,-86 121.6556,-122"/>
<text text-anchor="middle" x="73" y="-99.8" font-family="Times,serif" font-size="14.00" fill="#000000">...components </text>
</g>
<!-- SharedModule&#45;&gt;...components  -->
<g id="edge31" class="edge">
<title>SharedModule&#45;&gt;...components </title>
<path fill="none" stroke="#000000" stroke-dasharray="5,2" d="M583.3037,-189C446.2507,-189 73,-189 73,-189 73,-189 73,-132.0263 73,-132.0263"/>
<polygon fill="#000000" stroke="#000000" points="76.5001,-132.0263 73,-122.0263 69.5001,-132.0263 76.5001,-132.0263"/>
</g>
<!-- SharedModule&#45;&gt;WebModule -->
<g id="edge35" class="edge">
<title>SharedModule&#45;&gt;WebModule</title>
<path fill="none" stroke="#000000" d="M616.5963,-198.0449C616.5963,-205.749 616.5963,-213 616.5963,-213 616.5963,-213 2208.6702,-213 2208.6702,-213 2208.6702,-213 2208.6702,-216.7566 2208.6702,-216.7566"/>
<polygon fill="#000000" stroke="#000000" points="2205.1703,-216.7566 2208.6702,-226.7566 2212.1703,-216.7566 2205.1703,-216.7566"/>
</g>
<!-- CommonModule -->
<g id="node5" class="node">
<title>CommonModule</title>
<polygon fill="#8dd3c7" stroke="#000000" points="683.6681,-122 680.6681,-126 659.6681,-126 656.6681,-122 572.3319,-122 572.3319,-86 683.6681,-86 683.6681,-122"/>
<text text-anchor="middle" x="628" y="-99.8" font-family="Times,serif" font-size="14.00" fill="#000000">CommonModule</text>
</g>
<!-- CommonModule&#45;&gt;AccountModule -->
<g id="edge4" class="edge">
<title>CommonModule&#45;&gt;AccountModule</title>
<path fill="none" stroke="#000000" d="M575.0719,-122.2067C575.0719,-159.0559 575.0719,-239 575.0719,-239 575.0719,-239 778.3042,-239 778.3042,-239"/>
<polygon fill="#000000" stroke="#000000" points="778.3042,-242.5001 788.3042,-239 778.3042,-235.5001 778.3042,-242.5001"/>
</g>
<!-- CommonModule&#45;&gt;SharedModule -->
<g id="edge30" class="edge">
<title>CommonModule&#45;&gt;SharedModule</title>
<path fill="none" stroke="#000000" d="M633,-122.0109C633,-122.0109 633,-151.855 633,-151.855"/>
<polygon fill="#000000" stroke="#000000" points="629.5001,-151.8549 633,-161.855 636.5001,-151.855 629.5001,-151.8549"/>
</g>
<!-- CommonModule&#45;&gt;AdminModule -->
<g id="edge14" class="edge">
<title>CommonModule&#45;&gt;AdminModule</title>
<path fill="none" stroke="#000000" d="M577.9776,-122.2254C577.9776,-155.795 577.9776,-224 577.9776,-224 577.9776,-224 1468.3906,-224 1468.3906,-224 1468.3906,-224 1468.3906,-224.292 1468.3906,-224.292"/>
<polygon fill="#000000" stroke="#000000" points="1464.891,-216.9198 1468.3906,-226.92 1471.891,-216.9201 1464.891,-216.9198"/>
</g>
<!-- CommonModule&#45;&gt;WebModule -->
<g id="edge36" class="edge">
<title>CommonModule&#45;&gt;WebModule</title>
<path fill="none" stroke="#000000" d="M580.8832,-122.1554C580.8832,-154.0979 580.8832,-217 580.8832,-217 580.8832,-217 2194.3403,-217 2194.3403,-217 2194.3403,-217 2194.3403,-217.9793 2194.3403,-217.9793"/>
<polygon fill="#000000" stroke="#000000" points="2190.8404,-216.793 2194.3403,-226.793 2197.8404,-216.7931 2190.8404,-216.793"/>
</g>
<!-- FormsModule -->
<g id="node6" class="node">
<title>FormsModule</title>
<polygon fill="#8dd3c7" stroke="#000000" points="959.8288,-122 956.8288,-126 935.8288,-126 932.8288,-122 864.1712,-122 864.1712,-86 959.8288,-86 959.8288,-122"/>
<text text-anchor="middle" x="912" y="-99.8" font-family="Times,serif" font-size="14.00" fill="#000000">FormsModule</text>
</g>
<!-- FormsModule&#45;&gt;AccountModule -->
<g id="edge5" class="edge">
<title>FormsModule&#45;&gt;AccountModule</title>
<path fill="none" stroke="#000000" d="M874.72,-122.1446C874.72,-122.1446 874.72,-216.925 874.72,-216.925"/>
<polygon fill="#000000" stroke="#000000" points="871.2201,-216.925 874.72,-226.925 878.2201,-216.925 871.2201,-216.925"/>
</g>
<!-- FormsModule&#45;&gt;AdminModule -->
<g id="edge15" class="edge">
<title>FormsModule&#45;&gt;AdminModule</title>
<path fill="none" stroke="#000000" d="M942.4859,-122.2703C942.4859,-162.0576 942.4859,-253 942.4859,-253 942.4859,-253 1433.6611,-253 1433.6611,-253"/>
<polygon fill="#000000" stroke="#000000" points="1433.6611,-256.5001 1443.6611,-253 1433.661,-249.5001 1433.6611,-256.5001"/>
</g>
<!-- FormsModule&#45;&gt;WebModule -->
<g id="edge37" class="edge">
<title>FormsModule&#45;&gt;WebModule</title>
<path fill="none" stroke="#000000" d="M959.7143,-104C1135.0286,-104 1733.4345,-104 1733.4345,-104 1733.4345,-104 1733.4345,-241 1733.4345,-241 1733.4345,-241 2169.9834,-241 2169.9834,-241"/>
<polygon fill="#000000" stroke="#000000" points="2169.9834,-244.5001 2179.9834,-241 2169.9834,-237.5001 2169.9834,-244.5001"/>
</g>
<!-- ReactiveFormsModule -->
<g id="node7" class="node">
<title>ReactiveFormsModule</title>
<polygon fill="#8dd3c7" stroke="#000000" points="846.3047,-122 843.3047,-126 822.3047,-126 819.3047,-122 701.6953,-122 701.6953,-86 846.3047,-86 846.3047,-122"/>
<text text-anchor="middle" x="774" y="-99.8" font-family="Times,serif" font-size="14.00" fill="#000000">ReactiveFormsModule</text>
</g>
<!-- ReactiveFormsModule&#45;&gt;AccountModule -->
<g id="edge6" class="edge">
<title>ReactiveFormsModule&#45;&gt;AccountModule</title>
<path fill="none" stroke="#000000" d="M817.3321,-122.1446C817.3321,-122.1446 817.3321,-216.925 817.3321,-216.925"/>
<polygon fill="#000000" stroke="#000000" points="813.8321,-216.925 817.3321,-226.925 820.8321,-216.925 813.8321,-216.925"/>
</g>
<!-- ReactiveFormsModule&#45;&gt;AdminModule -->
<g id="edge16" class="edge">
<title>ReactiveFormsModule&#45;&gt;AdminModule</title>
<path fill="none" stroke="#000000" d="M831.7421,-122.125C831.7421,-154.75 831.7421,-220 831.7421,-220 831.7421,-220 1493,-220 1493,-220 1493,-220 1493,-220.6831 1493,-220.6831"/>
<polygon fill="#000000" stroke="#000000" points="1489.5002,-216.8313 1493,-226.8314 1496.5002,-216.8314 1489.5002,-216.8313"/>
</g>
<!-- AccountRoutingModule -->
<g id="node8" class="node">
<title>AccountRoutingModule</title>
<polygon fill="#8dd3c7" stroke="#000000" points="554.094,-122 551.094,-126 530.094,-126 527.094,-122 401.906,-122 401.906,-86 554.094,-86 554.094,-122"/>
<text text-anchor="middle" x="478" y="-99.8" font-family="Times,serif" font-size="14.00" fill="#000000">AccountRoutingModule</text>
</g>
<!-- AccountRoutingModule&#45;&gt;AccountModule -->
<g id="edge7" class="edge">
<title>AccountRoutingModule&#45;&gt;AccountModule</title>
<path fill="none" stroke="#000000" d="M478,-122.0251C478,-161.2783 478,-251 478,-251 478,-251 778.2905,-251 778.2905,-251"/>
<polygon fill="#000000" stroke="#000000" points="778.2906,-254.5001 788.2905,-251 778.2905,-247.5001 778.2906,-254.5001"/>
</g>
<!-- ...services -->
<g id="node10" class="node">
<title>...services</title>
<ellipse fill="#fdb462" stroke="#000000" cx="1262" cy="-180" rx="49.2553" ry="18"/>
<text text-anchor="middle" x="1262" y="-175.8" font-family="Times,serif" font-size="14.00" fill="#000000">...services</text>
</g>
<!-- ...services&#45;&gt;AccountModule -->
<g id="edge9" class="edge">
<title>...services&#45;&gt;AccountModule</title>
<path fill="none" stroke="#000000" d="M1262,-198.0336C1262,-215.0597 1262,-238 1262,-238 1262,-238 905.6199,-238 905.6199,-238"/>
<polygon fill="#000000" stroke="#000000" points="905.6199,-234.5001 895.6199,-238 905.6199,-241.5001 905.6199,-234.5001"/>
</g>
<!-- ...services&#45;&gt;AdminModule -->
<g id="edge21" class="edge">
<title>...services&#45;&gt;AdminModule</title>
<path fill="none" stroke="#000000" d="M1286.6887,-195.8976C1286.6887,-214.5608 1286.6887,-243 1286.6887,-243 1286.6887,-243 1433.5833,-243 1433.5833,-243"/>
<polygon fill="#000000" stroke="#000000" points="1433.5833,-246.5001 1443.5833,-243 1433.5833,-239.5001 1433.5833,-246.5001"/>
</g>
<!-- ...services&#45;&gt;WebModule -->
<g id="edge45" class="edge">
<title>...services&#45;&gt;WebModule</title>
<path fill="none" stroke="#000000" d="M1237.3113,-195.7241C1237.3113,-201.1996 1237.3113,-206 1237.3113,-206 1237.3113,-206 2237.3298,-206 2237.3298,-206 2237.3298,-206 2237.3298,-216.8701 2237.3298,-216.8701"/>
<polygon fill="#000000" stroke="#000000" points="2233.8299,-216.8701 2237.3298,-226.8701 2240.8299,-216.8701 2233.8299,-216.8701"/>
</g>
<!-- AdminComponent -->
<g id="node11" class="node">
<title>AdminComponent</title>
<polygon fill="#ffffb3" stroke="#000000" points="1563.2204,-198 1442.7796,-198 1442.7796,-162 1563.2204,-162 1563.2204,-198"/>
<text text-anchor="middle" x="1503" y="-175.8" font-family="Times,serif" font-size="14.00" fill="#000000">AdminComponent</text>
</g>
<!-- AdminComponent&#45;&gt;AdminModule -->
<g id="edge10" class="edge">
<title>AdminComponent&#45;&gt;AdminModule</title>
<path fill="none" stroke="#000000" d="M1517.6094,-198.1061C1517.6094,-198.1061 1517.6094,-216.991 1517.6094,-216.991"/>
<polygon fill="#000000" stroke="#000000" points="1514.1095,-216.9909 1517.6094,-226.991 1521.1095,-216.991 1514.1095,-216.9909"/>
</g>
<!-- AdminComponent  -->
<g id="node17" class="node">
<title>AdminComponent </title>
<polygon fill="#80b1d3" stroke="#000000" points="1566.7205,-331 1443.2795,-331 1443.2795,-295 1566.7205,-295 1566.7205,-331"/>
<text text-anchor="middle" x="1505" y="-308.8" font-family="Times,serif" font-size="14.00" fill="#000000">AdminComponent </text>
</g>
<!-- AdminModule&#45;&gt;AdminComponent  -->
<g id="edge20" class="edge">
<title>AdminModule&#45;&gt;AdminComponent </title>
<path fill="none" stroke="#000000" stroke-dasharray="1,5" d="M1493,-263.2228C1493,-263.2228 1493,-284.7269 1493,-284.7269"/>
<polygon fill="#000000" stroke="#000000" points="1489.5001,-284.7269 1493,-294.7269 1496.5001,-284.727 1489.5001,-284.7269"/>
</g>
<!-- NgxDatatableModule -->
<g id="node13" class="node">
<title>NgxDatatableModule</title>
<polygon fill="#8dd3c7" stroke="#000000" points="1724.7935,-198 1721.7935,-202 1700.7935,-202 1697.7935,-198 1587.2065,-198 1587.2065,-162 1724.7935,-162 1724.7935,-198"/>
<text text-anchor="middle" x="1656" y="-175.8" font-family="Times,serif" font-size="14.00" fill="#000000">NgxDatatableModule</text>
</g>
<!-- NgxDatatableModule&#45;&gt;AdminModule -->
<g id="edge12" class="edge">
<title>NgxDatatableModule&#45;&gt;AdminModule</title>
<path fill="none" stroke="#000000" d="M1656,-198.1061C1656,-217.3391 1656,-245 1656,-245 1656,-245 1552.3477,-245 1552.3477,-245"/>
<polygon fill="#000000" stroke="#000000" points="1552.3478,-241.5001 1542.3477,-245 1552.3477,-248.5001 1552.3478,-241.5001"/>
</g>
<!-- HttpModule -->
<g id="node14" class="node">
<title>HttpModule</title>
<polygon fill="#8dd3c7" stroke="#000000" points="1988.4387,-198 1985.4387,-202 1964.4387,-202 1961.4387,-198 1903.5613,-198 1903.5613,-162 1988.4387,-162 1988.4387,-198"/>
<text text-anchor="middle" x="1946" y="-175.8" font-family="Times,serif" font-size="14.00" fill="#000000">HttpModule</text>
</g>
<!-- HttpModule&#45;&gt;SharedModule -->
<g id="edge29" class="edge">
<title>HttpModule&#45;&gt;SharedModule</title>
<path fill="none" stroke="#000000" d="M1924.8906,-198.1679C1924.8906,-200.4478 1924.8906,-202 1924.8906,-202 1924.8906,-202 649.4037,-202 649.4037,-202 649.4037,-202 649.4037,-201.6168 649.4037,-201.6168"/>
<polygon fill="#000000" stroke="#000000" points="652.904,-208.1678 649.4037,-198.1679 645.904,-208.168 652.904,-208.1678"/>
</g>
<!-- HttpModule&#45;&gt;AdminModule -->
<g id="edge17" class="edge">
<title>HttpModule&#45;&gt;AdminModule</title>
<path fill="none" stroke="#000000" d="M1946,-198.2921C1946,-220.2057 1946,-254 1946,-254 1946,-254 1552.3413,-254 1552.3413,-254"/>
<polygon fill="#000000" stroke="#000000" points="1552.3413,-250.5001 1542.3413,-254 1552.3412,-257.5001 1552.3413,-250.5001"/>
</g>
<!-- HttpModule&#45;&gt;WebModule -->
<g id="edge39" class="edge">
<title>HttpModule&#45;&gt;WebModule</title>
<path fill="none" stroke="#000000" d="M1967.1094,-198.027C1967.1094,-214.3976 1967.1094,-236 1967.1094,-236 1967.1094,-236 2169.881,-236 2169.881,-236"/>
<polygon fill="#000000" stroke="#000000" points="2169.881,-239.5001 2179.881,-236 2169.881,-232.5001 2169.881,-239.5001"/>
</g>
<!-- AdminRoutingModule -->
<g id="node15" class="node">
<title>AdminRoutingModule</title>
<polygon fill="#8dd3c7" stroke="#000000" points="1885.5561,-198 1882.5561,-202 1861.5561,-202 1858.5561,-198 1742.4439,-198 1742.4439,-162 1885.5561,-162 1885.5561,-198"/>
<text text-anchor="middle" x="1814" y="-175.8" font-family="Times,serif" font-size="14.00" fill="#000000">AdminRoutingModule</text>
</g>
<!-- AdminRoutingModule&#45;&gt;AdminModule -->
<g id="edge18" class="edge">
<title>AdminRoutingModule&#45;&gt;AdminModule</title>
<path fill="none" stroke="#000000" d="M1814,-198.0267C1814,-218.7672 1814,-250 1814,-250 1814,-250 1552.4528,-250 1552.4528,-250"/>
<polygon fill="#000000" stroke="#000000" points="1552.4528,-246.5001 1542.4528,-250 1552.4527,-253.5001 1552.4528,-246.5001"/>
</g>
<!-- SelectModule -->
<g id="node16" class="node">
<title>SelectModule</title>
<polygon fill="#8dd3c7" stroke="#000000" points="2099.7577,-198 2096.7577,-202 2075.7577,-202 2072.7577,-198 2006.2423,-198 2006.2423,-162 2099.7577,-162 2099.7577,-198"/>
<text text-anchor="middle" x="2053" y="-175.8" font-family="Times,serif" font-size="14.00" fill="#000000">SelectModule</text>
</g>
<!-- SelectModule&#45;&gt;AdminModule -->
<g id="edge19" class="edge">
<title>SelectModule&#45;&gt;AdminModule</title>
<path fill="none" stroke="#000000" d="M2037.3738,-198.3228C2037.3738,-221.6602 2037.3738,-259 2037.3738,-259 2037.3738,-259 1552.2697,-259 1552.2697,-259"/>
<polygon fill="#000000" stroke="#000000" points="1552.2697,-255.5001 1542.2697,-259 1552.2696,-262.5001 1552.2697,-255.5001"/>
</g>
<!-- SelectModule&#45;&gt;WebModule -->
<g id="edge42" class="edge">
<title>SelectModule&#45;&gt;WebModule</title>
<path fill="none" stroke="#000000" d="M2068.6262,-198.1871C2068.6262,-213.1824 2068.6262,-232 2068.6262,-232 2068.6262,-232 2169.9983,-232 2169.9983,-232"/>
<polygon fill="#000000" stroke="#000000" points="2169.9983,-235.5001 2179.9983,-232 2169.9983,-228.5001 2169.9983,-235.5001"/>
</g>
<!-- AppComponent -->
<g id="node18" class="node">
<title>AppComponent</title>
<polygon fill="#ffffb3" stroke="#000000" points="3660.9399,-122 3555.0601,-122 3555.0601,-86 3660.9399,-86 3660.9399,-122"/>
<text text-anchor="middle" x="3608" y="-99.8" font-family="Times,serif" font-size="14.00" fill="#000000">AppComponent</text>
</g>
<!-- AppModule -->
<g id="node19" class="node">
<title>AppModule</title>
<polygon fill="#8dd3c7" stroke="#000000" points="3444.6571,-198 3441.6571,-202 3420.6571,-202 3417.6571,-198 3361.3429,-198 3361.3429,-162 3444.6571,-162 3444.6571,-198"/>
<text text-anchor="middle" x="3403" y="-175.8" font-family="Times,serif" font-size="14.00" fill="#000000">AppModule</text>
</g>
<!-- AppComponent&#45;&gt;AppModule -->
<g id="edge22" class="edge">
<title>AppComponent&#45;&gt;AppModule</title>
<path fill="none" stroke="#000000" d="M3608,-122.0109C3608,-144.4852 3608,-180 3608,-180 3608,-180 3454.9795,-180 3454.9795,-180"/>
<polygon fill="#000000" stroke="#000000" points="3454.9795,-176.5001 3444.9795,-180 3454.9795,-183.5001 3454.9795,-176.5001"/>
</g>
<!-- AppComponent  -->
<g id="node23" class="node">
<title>AppComponent </title>
<polygon fill="#80b1d3" stroke="#000000" points="3457.439,-263 3348.561,-263 3348.561,-227 3457.439,-227 3457.439,-263"/>
<text text-anchor="middle" x="3403" y="-240.8" font-family="Times,serif" font-size="14.00" fill="#000000">AppComponent </text>
</g>
<!-- AppModule&#45;&gt;AppComponent  -->
<g id="edge26" class="edge">
<title>AppModule&#45;&gt;AppComponent </title>
<path fill="none" stroke="#000000" stroke-dasharray="1,5" d="M3403,-198.1061C3403,-198.1061 3403,-216.991 3403,-216.991"/>
<polygon fill="#000000" stroke="#000000" points="3399.5001,-216.9909 3403,-226.991 3406.5001,-216.991 3399.5001,-216.9909"/>
</g>
<!-- BrowserModule -->
<g id="node20" class="node">
<title>BrowserModule</title>
<polygon fill="#8dd3c7" stroke="#000000" points="3531.4734,-122 3528.4734,-126 3507.4734,-126 3504.4734,-122 3424.5266,-122 3424.5266,-86 3531.4734,-86 3531.4734,-122"/>
<text text-anchor="middle" x="3478" y="-99.8" font-family="Times,serif" font-size="14.00" fill="#000000">BrowserModule</text>
</g>
<!-- BrowserModule&#45;&gt;AppModule -->
<g id="edge23" class="edge">
<title>BrowserModule&#45;&gt;AppModule</title>
<path fill="none" stroke="#000000" d="M3434.6708,-122.0109C3434.6708,-122.0109 3434.6708,-151.855 3434.6708,-151.855"/>
<polygon fill="#000000" stroke="#000000" points="3431.1708,-151.8549 3434.6708,-161.855 3438.1708,-151.855 3431.1708,-151.8549"/>
</g>
<!-- SharedModule.forRoot() -->
<g id="node21" class="node">
<title>SharedModule.forRoot()</title>
<polygon fill="#8dd3c7" stroke="#000000" points="3406.2919,-122 3403.2919,-126 3382.2919,-126 3379.2919,-122 3251.7081,-122 3251.7081,-86 3406.2919,-86 3406.2919,-122"/>
<text text-anchor="middle" x="3329" y="-99.8" font-family="Times,serif" font-size="14.00" fill="#000000">SharedModule.forRoot()</text>
</g>
<!-- SharedModule.forRoot()&#45;&gt;AppModule -->
<g id="edge24" class="edge">
<title>SharedModule.forRoot()&#45;&gt;AppModule</title>
<path fill="none" stroke="#000000" d="M3383.7839,-122.0109C3383.7839,-122.0109 3383.7839,-151.855 3383.7839,-151.855"/>
<polygon fill="#000000" stroke="#000000" points="3380.2839,-151.8549 3383.7839,-161.855 3387.2839,-151.855 3380.2839,-151.8549"/>
</g>
<!-- AppRoutingModule -->
<g id="node22" class="node">
<title>AppRoutingModule</title>
<polygon fill="#8dd3c7" stroke="#000000" points="3233.2744,-122 3230.2744,-126 3209.2744,-126 3206.2744,-122 3104.7256,-122 3104.7256,-86 3233.2744,-86 3233.2744,-122"/>
<text text-anchor="middle" x="3169" y="-99.8" font-family="Times,serif" font-size="14.00" fill="#000000">AppRoutingModule</text>
</g>
<!-- AppRoutingModule&#45;&gt;AppModule -->
<g id="edge25" class="edge">
<title>AppRoutingModule&#45;&gt;AppModule</title>
<path fill="none" stroke="#000000" d="M3169,-122.0109C3169,-144.4852 3169,-180 3169,-180 3169,-180 3351.1655,-180 3351.1655,-180"/>
<polygon fill="#000000" stroke="#000000" points="3351.1655,-183.5001 3361.1655,-180 3351.1655,-176.5001 3351.1655,-183.5001"/>
</g>
<!-- ...components -->
<g id="node24" class="node">
<title>...components</title>
<polygon fill="#ffffb3" stroke="#000000" points="362.1551,-122 267.8449,-122 267.8449,-86 362.1551,-86 362.1551,-122"/>
<text text-anchor="middle" x="315" y="-99.8" font-family="Times,serif" font-size="14.00" fill="#000000">...components</text>
</g>
<!-- ...components&#45;&gt;SharedModule -->
<g id="edge27" class="edge">
<title>...components&#45;&gt;SharedModule</title>
<path fill="none" stroke="#000000" d="M315,-122.308C315,-142.1455 315,-171 315,-171 315,-171 573.6614,-171 573.6614,-171"/>
<polygon fill="#000000" stroke="#000000" points="573.6614,-174.5001 583.6614,-171 573.6614,-167.5001 573.6614,-174.5001"/>
</g>
<!-- RouterModule -->
<g id="node25" class="node">
<title>RouterModule</title>
<polygon fill="#8dd3c7" stroke="#000000" points="243.6528,-122 240.6528,-126 219.6528,-126 216.6528,-122 146.3472,-122 146.3472,-86 243.6528,-86 243.6528,-122"/>
<text text-anchor="middle" x="195" y="-99.8" font-family="Times,serif" font-size="14.00" fill="#000000">RouterModule</text>
</g>
<!-- RouterModule&#45;&gt;SharedModule -->
<g id="edge28" class="edge">
<title>RouterModule&#45;&gt;SharedModule</title>
<path fill="none" stroke="#000000" d="M195,-122.0109C195,-144.4852 195,-180 195,-180 195,-180 573.6072,-180 573.6072,-180"/>
<polygon fill="#000000" stroke="#000000" points="573.6073,-183.5001 583.6072,-180 573.6072,-176.5001 573.6073,-183.5001"/>
</g>
<!-- WebComponent -->
<g id="node27" class="node">
<title>WebComponent</title>
<polygon fill="#ffffb3" stroke="#000000" points="2907.7619,-198 2800.2381,-198 2800.2381,-162 2907.7619,-162 2907.7619,-198"/>
<text text-anchor="middle" x="2854" y="-175.8" font-family="Times,serif" font-size="14.00" fill="#000000">WebComponent</text>
</g>
<!-- WebComponent&#45;&gt;WebModule -->
<g id="edge32" class="edge">
<title>WebComponent&#45;&gt;WebModule</title>
<path fill="none" stroke="#000000" d="M2854,-198.2843C2854,-219.3211 2854,-251 2854,-251 2854,-251 2276.3712,-251 2276.3712,-251"/>
<polygon fill="#000000" stroke="#000000" points="2276.3712,-247.5001 2266.3712,-251 2276.3712,-254.5001 2276.3712,-247.5001"/>
</g>
<!-- PlayerComponent -->
<g id="node28" class="node">
<title>PlayerComponent</title>
<polygon fill="#ffffb3" stroke="#000000" points="3042.5954,-198 2925.4046,-198 2925.4046,-162 3042.5954,-162 3042.5954,-198"/>
<text text-anchor="middle" x="2984" y="-175.8" font-family="Times,serif" font-size="14.00" fill="#000000">PlayerComponent</text>
</g>
<!-- PlayerComponent&#45;&gt;WebModule -->
<g id="edge34" class="edge">
<title>PlayerComponent&#45;&gt;WebModule</title>
<path fill="none" stroke="#000000" d="M2984,-198.2479C2984,-221.0179 2984,-257 2984,-257 2984,-257 2276.0951,-257 2276.0951,-257"/>
<polygon fill="#000000" stroke="#000000" points="2276.0951,-253.5001 2266.0951,-257 2276.095,-260.5001 2276.0951,-253.5001"/>
</g>
<!-- WebComponent  -->
<g id="node34" class="node">
<title>WebComponent </title>
<polygon fill="#80b1d3" stroke="#000000" points="2278.7619,-331 2167.2381,-331 2167.2381,-295 2278.7619,-295 2278.7619,-331"/>
<text text-anchor="middle" x="2223" y="-308.8" font-family="Times,serif" font-size="14.00" fill="#000000">WebComponent </text>
</g>
<!-- WebModule&#45;&gt;WebComponent  -->
<g id="edge44" class="edge">
<title>WebModule&#45;&gt;WebComponent </title>
<path fill="none" stroke="#000000" stroke-dasharray="1,5" d="M2223,-263.2228C2223,-263.2228 2223,-284.7269 2223,-284.7269"/>
<polygon fill="#000000" stroke="#000000" points="2219.5001,-284.7269 2223,-294.7269 2226.5001,-284.727 2219.5001,-284.7269"/>
</g>
<!-- FileUploadModule -->
<g id="node30" class="node">
<title>FileUploadModule</title>
<polygon fill="#8dd3c7" stroke="#000000" points="2284.0409,-198 2281.0409,-202 2260.0409,-202 2257.0409,-198 2161.9591,-198 2161.9591,-162 2284.0409,-162 2284.0409,-198"/>
<text text-anchor="middle" x="2223" y="-175.8" font-family="Times,serif" font-size="14.00" fill="#000000">FileUploadModule</text>
</g>
<!-- FileUploadModule&#45;&gt;WebModule -->
<g id="edge38" class="edge">
<title>FileUploadModule&#45;&gt;WebModule</title>
<path fill="none" stroke="#000000" d="M2251.6597,-198.1061C2251.6597,-198.1061 2251.6597,-216.991 2251.6597,-216.991"/>
<polygon fill="#000000" stroke="#000000" points="2248.1598,-216.9909 2251.6597,-226.991 2255.1598,-216.991 2248.1598,-216.9909"/>
</g>
<!-- WebRoutingModule -->
<g id="node31" class="node">
<title>WebRoutingModule</title>
<polygon fill="#8dd3c7" stroke="#000000" points="2775.5968,-198 2772.5968,-202 2751.5968,-202 2748.5968,-198 2644.4032,-198 2644.4032,-162 2775.5968,-162 2775.5968,-198"/>
<text text-anchor="middle" x="2710" y="-175.8" font-family="Times,serif" font-size="14.00" fill="#000000">WebRoutingModule</text>
</g>
<!-- WebRoutingModule&#45;&gt;WebModule -->
<g id="edge40" class="edge">
<title>WebRoutingModule&#45;&gt;WebModule</title>
<path fill="none" stroke="#000000" d="M2710,-198.1061C2710,-217.3391 2710,-245 2710,-245 2710,-245 2276.218,-245 2276.218,-245"/>
<polygon fill="#000000" stroke="#000000" points="2276.218,-241.5001 2266.218,-245 2276.218,-248.5001 2276.218,-241.5001"/>
</g>
<!-- Ng2BootstrapModule.forRoot() -->
<g id="node32" class="node">
<title>Ng2BootstrapModule.forRoot()</title>
<polygon fill="#8dd3c7" stroke="#000000" points="2626.4642,-198 2623.4642,-202 2602.4642,-202 2599.4642,-198 2431.5358,-198 2431.5358,-162 2626.4642,-162 2626.4642,-198"/>
<text text-anchor="middle" x="2529" y="-175.8" font-family="Times,serif" font-size="14.00" fill="#000000">Ng2BootstrapModule.forRoot()</text>
</g>
<!-- Ng2BootstrapModule.forRoot()&#45;&gt;WebModule -->
<g id="edge41" class="edge">
<title>Ng2BootstrapModule.forRoot()&#45;&gt;WebModule</title>
<path fill="none" stroke="#000000" d="M2529,-198.0225C2529,-215.3734 2529,-239 2529,-239 2529,-239 2276.1933,-239 2276.1933,-239"/>
<polygon fill="#000000" stroke="#000000" points="2276.1934,-235.5001 2266.1933,-239 2276.1933,-242.5001 2276.1934,-235.5001"/>
</g>
<!-- TagInputModule -->
<g id="node33" class="node">
<title>TagInputModule</title>
<polygon fill="#8dd3c7" stroke="#000000" points="2413.3683,-198 2410.3683,-202 2389.3683,-202 2386.3683,-198 2302.6317,-198 2302.6317,-162 2413.3683,-162 2413.3683,-198"/>
<text text-anchor="middle" x="2358" y="-175.8" font-family="Times,serif" font-size="14.00" fill="#000000">TagInputModule</text>
</g>
<!-- TagInputModule&#45;&gt;WebModule -->
<g id="edge43" class="edge">
<title>TagInputModule&#45;&gt;WebModule</title>
<path fill="none" stroke="#000000" d="M2358,-198.2396C2358,-213.5706 2358,-233 2358,-233 2358,-233 2276.086,-233 2276.086,-233"/>
<polygon fill="#000000" stroke="#000000" points="2276.0861,-229.5001 2266.086,-233 2276.086,-236.5001 2276.0861,-229.5001"/>
</g>
</g>
</svg>
