<?xml version="1.0" encoding="UTF-8" standalone="no"?>
<!DOCTYPE svg PUBLIC "-//W3C//DTD SVG 1.1//EN"
 "http://www.w3.org/Graphics/SVG/1.1/DTD/svg11.dtd">
<!-- Generated by graphviz version 2.40.1 (20161225.0304)
 -->
<!-- Title: dependencies Pages: 1 -->
<svg width="1433pt" height="284pt"
 viewBox="0.00 0.00 1433.00 284.00" xmlns="http://www.w3.org/2000/svg" xmlns:xlink="http://www.w3.org/1999/xlink">
<g id="graph0" class="graph" transform="scale(1 1) rotate(0) translate(4 280)">
<title>dependencies</title>
<polygon fill="#ffffff" stroke="transparent" points="-4,4 -4,-280 1429,-280 1429,4 -4,4"/>
<text text-anchor="start" x="691.5091" y="-42.4" font-family="sans-serif" font-weight="bold" font-size="14.00" fill="#000000">Legend</text>
<polygon fill="#ffffb3" stroke="transparent" points="478.5,-10 478.5,-30 498.5,-30 498.5,-10 478.5,-10"/>
<text text-anchor="start" x="502.129" y="-15.4" font-family="sans-serif" font-size="14.00" fill="#000000"> &#160;Declarations</text>
<polygon fill="#8dd3c7" stroke="transparent" points="591.5,-10 591.5,-30 611.5,-30 611.5,-10 591.5,-10"/>
<text text-anchor="start" x="615.2251" y="-15.4" font-family="sans-serif" font-size="14.00" fill="#000000"> &#160;Module</text>
<polygon fill="#80b1d3" stroke="transparent" points="677.5,-10 677.5,-30 697.5,-30 697.5,-10 677.5,-10"/>
<text text-anchor="start" x="701.2812" y="-15.4" font-family="sans-serif" font-size="14.00" fill="#000000"> &#160;Bootstrap</text>
<polygon fill="#fdb462" stroke="transparent" points="774.5,-10 774.5,-30 794.5,-30 794.5,-10 774.5,-10"/>
<text text-anchor="start" x="798.1732" y="-15.4" font-family="sans-serif" font-size="14.00" fill="#000000"> &#160;Providers</text>
<polygon fill="#fb8072" stroke="transparent" points="870.5,-10 870.5,-30 890.5,-30 890.5,-10 870.5,-10"/>
<text text-anchor="start" x="894.2258" y="-15.4" font-family="sans-serif" font-size="14.00" fill="#000000"> &#160;Exports</text>
<g id="clust1" class="cluster">
<title>cluster_AdminModule</title>
<polygon fill="none" stroke="#000000" stroke-dasharray="1,5" points="8,-70 8,-268 1417,-268 1417,-70 8,-70"/>
</g>
<g id="clust2" class="cluster">
<title>cluster_AdminModule_declarations</title>
<polygon fill="none" stroke="#000000" points="1197,-78 1197,-130 1409,-130 1409,-78 1197,-78"/>
</g>
<g id="clust5" class="cluster">
<title>cluster_AdminModule_imports</title>
<polygon fill="none" stroke="#000000" points="138,-78 138,-130 1189,-130 1189,-78 138,-78"/>
</g>
<g id="clust7" class="cluster">
<title>cluster_AdminModule_bootstrap</title>
<polygon fill="none" stroke="#000000" points="662,-208 662,-260 802,-260 802,-208 662,-208"/>
</g>
<g id="clust8" class="cluster">
<title>cluster_AdminModule_providers</title>
<polygon fill="none" stroke="#000000" points="16,-78 16,-130 130,-130 130,-78 16,-78"/>
</g>
<!-- AdminComponent -->
<g id="node1" class="node">
<title>AdminComponent</title>
<polygon fill="#ffffb3" stroke="#000000" points="1401.2204,-122 1280.7796,-122 1280.7796,-86 1401.2204,-86 1401.2204,-122"/>
<text text-anchor="middle" x="1341" y="-99.8" font-family="Times,serif" font-size="14.00" fill="#000000">AdminComponent</text>
</g>
<!-- AdminModule -->
<g id="node3" class="node">
<title>AdminModule</title>
<polygon fill="#8dd3c7" stroke="#000000" points="781.4386,-187 778.4386,-191 757.4386,-191 754.4386,-187 682.5614,-187 682.5614,-151 781.4386,-151 781.4386,-187"/>
<text text-anchor="middle" x="732" y="-164.8" font-family="Times,serif" font-size="14.00" fill="#000000">AdminModule</text>
</g>
<!-- AdminComponent&#45;&gt;AdminModule -->
<g id="edge1" class="edge">
<title>AdminComponent&#45;&gt;AdminModule</title>
<path fill="none" stroke="#000000" d="M1341,-122.2479C1341,-145.0179 1341,-181 1341,-181 1341,-181 791.3212,-181 791.3212,-181"/>
<polygon fill="#000000" stroke="#000000" points="791.3212,-177.5001 781.3212,-181 791.3211,-184.5001 791.3212,-177.5001"/>
</g>
<!-- ...pages -->
<g id="node2" class="node">
<title>...pages</title>
<polygon fill="#ffffb3" stroke="#000000" points="1263.375,-122 1204.625,-122 1204.625,-86 1263.375,-86 1263.375,-122"/>
<text text-anchor="middle" x="1234" y="-99.8" font-family="Times,serif" font-size="14.00" fill="#000000">...pages</text>
</g>
<!-- ...pages&#45;&gt;AdminModule -->
<g id="edge2" class="edge">
<title>...pages&#45;&gt;AdminModule</title>
<path fill="none" stroke="#000000" d="M1234,-122.2843C1234,-143.3211 1234,-175 1234,-175 1234,-175 791.5075,-175 791.5075,-175"/>
<polygon fill="#000000" stroke="#000000" points="791.5076,-171.5001 781.5075,-175 791.5075,-178.5001 791.5076,-171.5001"/>
</g>
<!-- AdminComponent  -->
<g id="node12" class="node">
<title>AdminComponent </title>
<polygon fill="#80b1d3" stroke="#000000" points="793.7205,-252 670.2795,-252 670.2795,-216 793.7205,-216 793.7205,-252"/>
<text text-anchor="middle" x="732" y="-229.8" font-family="Times,serif" font-size="14.00" fill="#000000">AdminComponent </text>
</g>
<!-- AdminModule&#45;&gt;AdminComponent  -->
<g id="edge11" class="edge">
<title>AdminModule&#45;&gt;AdminComponent </title>
<path fill="none" stroke="#000000" stroke-dasharray="1,5" d="M732,-187.1061C732,-187.1061 732,-205.991 732,-205.991"/>
<polygon fill="#000000" stroke="#000000" points="728.5001,-205.9909 732,-215.991 735.5001,-205.991 728.5001,-205.9909"/>
</g>
<!-- NgxDatatableModule -->
<g id="node4" class="node">
<title>NgxDatatableModule</title>
<polygon fill="#8dd3c7" stroke="#000000" points="1180.7935,-122 1177.7935,-126 1156.7935,-126 1153.7935,-122 1043.2065,-122 1043.2065,-86 1180.7935,-86 1180.7935,-122"/>
<text text-anchor="middle" x="1112" y="-99.8" font-family="Times,serif" font-size="14.00" fill="#000000">NgxDatatableModule</text>
</g>
<!-- NgxDatatableModule&#45;&gt;AdminModule -->
<g id="edge3" class="edge">
<title>NgxDatatableModule&#45;&gt;AdminModule</title>
<path fill="none" stroke="#000000" d="M1112,-122.1061C1112,-141.3391 1112,-169 1112,-169 1112,-169 791.2888,-169 791.2888,-169"/>
<polygon fill="#000000" stroke="#000000" points="791.2888,-165.5001 781.2888,-169 791.2888,-172.5001 791.2888,-165.5001"/>
</g>
<!-- SharedModule -->
<g id="node5" class="node">
<title>SharedModule</title>
<polygon fill="#8dd3c7" stroke="#000000" points="1025.4231,-122 1022.4231,-126 1001.4231,-126 998.4231,-122 926.5769,-122 926.5769,-86 1025.4231,-86 1025.4231,-122"/>
<text text-anchor="middle" x="976" y="-99.8" font-family="Times,serif" font-size="14.00" fill="#000000">SharedModule</text>
</g>
<!-- SharedModule&#45;&gt;AdminModule -->
<g id="edge4" class="edge">
<title>SharedModule&#45;&gt;AdminModule</title>
<path fill="none" stroke="#000000" d="M976,-122.0225C976,-139.3734 976,-163 976,-163 976,-163 791.377,-163 791.377,-163"/>
<polygon fill="#000000" stroke="#000000" points="791.3771,-159.5001 781.377,-163 791.377,-166.5001 791.3771,-159.5001"/>
</g>
<!-- CommonModule -->
<g id="node6" class="node">
<title>CommonModule</title>
<polygon fill="#8dd3c7" stroke="#000000" points="908.6681,-122 905.6681,-126 884.6681,-126 881.6681,-122 797.3319,-122 797.3319,-86 908.6681,-86 908.6681,-122"/>
<text text-anchor="middle" x="853" y="-99.8" font-family="Times,serif" font-size="14.00" fill="#000000">CommonModule</text>
</g>
<!-- CommonModule&#45;&gt;AdminModule -->
<g id="edge5" class="edge">
<title>CommonModule&#45;&gt;AdminModule</title>
<path fill="none" stroke="#000000" d="M853,-122.2396C853,-137.5706 853,-157 853,-157 853,-157 791.5645,-157 791.5645,-157"/>
<polygon fill="#000000" stroke="#000000" points="791.5645,-153.5001 781.5645,-157 791.5644,-160.5001 791.5645,-153.5001"/>
</g>
<!-- FormsModule -->
<g id="node7" class="node">
<title>FormsModule</title>
<polygon fill="#8dd3c7" stroke="#000000" points="779.8288,-122 776.8288,-126 755.8288,-126 752.8288,-122 684.1712,-122 684.1712,-86 779.8288,-86 779.8288,-122"/>
<text text-anchor="middle" x="732" y="-99.8" font-family="Times,serif" font-size="14.00" fill="#000000">FormsModule</text>
</g>
<!-- FormsModule&#45;&gt;AdminModule -->
<g id="edge6" class="edge">
<title>FormsModule&#45;&gt;AdminModule</title>
<path fill="none" stroke="#000000" d="M732,-122.1061C732,-122.1061 732,-140.991 732,-140.991"/>
<polygon fill="#000000" stroke="#000000" points="728.5001,-140.9909 732,-150.991 735.5001,-140.991 728.5001,-140.9909"/>
</g>
<!-- ReactiveFormsModule -->
<g id="node8" class="node">
<title>ReactiveFormsModule</title>
<polygon fill="#8dd3c7" stroke="#000000" points="666.3047,-122 663.3047,-126 642.3047,-126 639.3047,-122 521.6953,-122 521.6953,-86 666.3047,-86 666.3047,-122"/>
<text text-anchor="middle" x="594" y="-99.8" font-family="Times,serif" font-size="14.00" fill="#000000">ReactiveFormsModule</text>
</g>
<!-- ReactiveFormsModule&#45;&gt;AdminModule -->
<g id="edge7" class="edge">
<title>ReactiveFormsModule&#45;&gt;AdminModule</title>
<path fill="none" stroke="#000000" d="M594,-122.2396C594,-137.5706 594,-157 594,-157 594,-157 672.5686,-157 672.5686,-157"/>
<polygon fill="#000000" stroke="#000000" points="672.5687,-160.5001 682.5686,-157 672.5686,-153.5001 672.5687,-160.5001"/>
</g>
<!-- HttpModule -->
<g id="node9" class="node">
<title>HttpModule</title>
<polygon fill="#8dd3c7" stroke="#000000" points="504.4387,-122 501.4387,-126 480.4387,-126 477.4387,-122 419.5613,-122 419.5613,-86 504.4387,-86 504.4387,-122"/>
<text text-anchor="middle" x="462" y="-99.8" font-family="Times,serif" font-size="14.00" fill="#000000">HttpModule</text>
</g>
<!-- HttpModule&#45;&gt;AdminModule -->
<g id="edge8" class="edge">
<title>HttpModule&#45;&gt;AdminModule</title>
<path fill="none" stroke="#000000" d="M462,-122.0225C462,-139.3734 462,-163 462,-163 462,-163 672.4778,-163 672.4778,-163"/>
<polygon fill="#000000" stroke="#000000" points="672.4779,-166.5001 682.4778,-163 672.4778,-159.5001 672.4779,-166.5001"/>
</g>
<!-- AdminRoutingModule -->
<g id="node10" class="node">
<title>AdminRoutingModule</title>
<polygon fill="#8dd3c7" stroke="#000000" points="401.5561,-122 398.5561,-126 377.5561,-126 374.5561,-122 258.4439,-122 258.4439,-86 401.5561,-86 401.5561,-122"/>
<text text-anchor="middle" x="330" y="-99.8" font-family="Times,serif" font-size="14.00" fill="#000000">AdminRoutingModule</text>
</g>
<!-- AdminRoutingModule&#45;&gt;AdminModule -->
<g id="edge9" class="edge">
<title>AdminRoutingModule&#45;&gt;AdminModule</title>
<path fill="none" stroke="#000000" d="M330,-122.1061C330,-141.3391 330,-169 330,-169 330,-169 672.7069,-169 672.7069,-169"/>
<polygon fill="#000000" stroke="#000000" points="672.7069,-172.5001 682.7069,-169 672.7069,-165.5001 672.7069,-172.5001"/>
</g>
<!-- SelectModule -->
<g id="node11" class="node">
<title>SelectModule</title>
<polygon fill="#8dd3c7" stroke="#000000" points="239.7577,-122 236.7577,-126 215.7577,-126 212.7577,-122 146.2423,-122 146.2423,-86 239.7577,-86 239.7577,-122"/>
<text text-anchor="middle" x="193" y="-99.8" font-family="Times,serif" font-size="14.00" fill="#000000">SelectModule</text>
</g>
<!-- SelectModule&#45;&gt;AdminModule -->
<g id="edge10" class="edge">
<title>SelectModule&#45;&gt;AdminModule</title>
<path fill="none" stroke="#000000" d="M193,-122.2843C193,-143.3211 193,-175 193,-175 193,-175 672.7385,-175 672.7385,-175"/>
<polygon fill="#000000" stroke="#000000" points="672.7385,-178.5001 682.7385,-175 672.7384,-171.5001 672.7385,-178.5001"/>
</g>
<!-- ...services -->
<g id="node13" class="node">
<title>...services</title>
<ellipse fill="#fdb462" stroke="#000000" cx="73" cy="-104" rx="49.2553" ry="18"/>
<text text-anchor="middle" x="73" y="-99.8" font-family="Times,serif" font-size="14.00" fill="#000000">...services</text>
</g>
<!-- ...services&#45;&gt;AdminModule -->
<g id="edge12" class="edge">
<title>...services&#45;&gt;AdminModule</title>
<path fill="none" stroke="#000000" d="M73,-122.2479C73,-145.0179 73,-181 73,-181 73,-181 672.7374,-181 672.7374,-181"/>
<polygon fill="#000000" stroke="#000000" points="672.7374,-184.5001 682.7374,-181 672.7374,-177.5001 672.7374,-184.5001"/>
</g>
</g>
</svg>
